<svg id="Capa_1" enable-background="new 0 0 512 512" height="512" viewBox="0 0 512 512" width="512" xmlns="http://www.w3.org/2000/svg"><path d="m255.987 431.772c-18.588 0-35.734-6.485-47.04-17.792l-82.732-82.731c-11.297-11.297-17.519-26.365-17.519-42.426 0-16.062 6.222-31.129 17.52-42.427 6.948-6.948 15.526-12.052 24.867-14.902l-24.867-24.868c-11.297-11.297-17.519-26.365-17.519-42.426s6.222-31.129 17.52-42.426c13.79-13.791 33.236-19.873 52.23-16.728v-30.046c0-41.355 33.645-75 75-75h5.083c41.355 0 75 33.645 75 75v30.046c18.997-3.145 38.441 2.937 52.23 16.728 23.395 23.394 23.395 61.458 0 84.853l-24.867 24.867c9.342 2.851 17.919 7.955 24.867 14.903 23.395 23.394 23.395 61.458 0 84.853l-82.731 82.731c-11.308 11.306-28.453 17.791-47.042 17.791z" fill="#fdbf00"/><path d="m360.891 231.493 24.867-24.867c23.395-23.394 23.395-61.458 0-84.853-13.789-13.791-33.233-19.873-52.23-16.728v-30.045c0-41.355-33.645-75-75-75h-2.528v431.772c18.584-.003 35.724-6.487 47.027-17.791l82.731-82.731c23.395-23.394 23.395-61.458 0-84.853-6.948-6.949-15.525-12.053-24.867-14.904z" fill="#ff9100"/><path d="m315.5 286.416c-5.857-5.858-15.355-5.858-21.213 0l-23.301 23.301v-173.717c0-8.284-6.716-15-15-15s-15 6.716-15 15v57.246l-24.26-24.259c-5.857-5.858-15.355-5.858-21.213 0s-5.858 15.355 0 21.213l45.473 45.472v261.328c0 8.284 6.716 15 15 15s15-6.716 15-15v-144.857l44.514-44.514c5.859-5.858 5.859-15.355 0-21.213z" fill="#803602"/><path d="m315.5 286.416c-5.857-5.858-15.355-5.858-21.213 0l-23.301 23.301v-173.717c0-8.28-6.709-14.992-14.987-14.999v390.999c8.278-.007 14.987-6.719 14.987-14.999v-144.858l44.514-44.514c5.859-5.858 5.859-15.355 0-21.213z" fill="#6f2e01"/></svg>