<svg height="511pt" viewBox="-33 0 511 511.93885" width="511pt" xmlns="http://www.w3.org/2000/svg"><path d="m202.160156 424.8125c-14.4375 3.136719-29.367187 3.28125-43.863281.425781 7.890625-1.441406 15.570313-3.847656 22.871094-7.167969 6.710937 3.054688 13.757812 5.316407 20.992187 6.742188zm0 0" fill="#a4c2f7"/><path d="m416.347656 275.140625c-5.28125-.007813-10.496094-1.175781-15.277344-3.414063-2.242187-1.195312-3.84375-3.320312-4.371093-5.804687-.527344-2.488281.074219-5.082031 1.640625-7.082031 10.496094-13.3125 35.839844-47.871094 38.742187-75.007813.238281-2.957031-1.089843-5.824219-3.5-7.554687-2.410156-1.726563-5.550781-2.066406-8.277343-.894532-7.765626 3.242188-18.773438 7.851563-30.71875 12.375-15.027344 5.949219-30.417969 10.9375-46.078126 14.933594-2.746093.621094-5.617187-.152344-7.679687-2.0625s-3.054687-4.714844-2.648437-7.496094c.085937-.425781.257812-.851562.34375-1.28125 5.203124-17.578124 11.945312-50.257812.765624-78.675781-1.074218-2.550781-3.332031-4.410156-6.042968-4.972656-2.710938-.5625-5.523438.246094-7.523438 2.15625-7.308594 7.074219-15 13.742187-23.039062 19.96875-.179688.144531-.382813.261719-.597656.339844-2.335938 1.5-5.257813 1.753906-7.816407.679687-2.558593-1.074218-4.421875-3.335937-4.984375-6.054687-.9375-4.4375-2.132812-9.984375-3.671875-16.210938-8.703125-34.050781-27.730469-89.003906-62.546875-100.609375-7.945312 2.8125-15.128906 7.429688-20.992187 13.480469-26.964844 26.625-40.363281 80.042969-45.226563 103.339844-.589844 2.84375-2.59375 5.1875-5.3125 6.207031-2.71875 1.023438-5.769531.582031-8.085937-1.171875-8.039063-6.226563-15.734375-12.894531-23.039063-19.96875-.507812-.519531-1.117187-.925781-1.792968-1.195313-2.0625-1.191406-4.542969-1.4375-6.796876-.667968-2.257812.769531-4.074218 2.476562-4.976562 4.679687-2.191406 5.675781-3.765625 11.570313-4.695312 17.578125-2.644532 20.523438-.78125 41.371094 5.460937 61.097656.921875 2.90625.21875 6.078126-1.84375 8.320313-2.0625 2.238281-5.171875 3.203125-8.140625 2.519531-10.714844-2.621094-21.28125-5.8125-31.65625-9.558594-17.066406-6.144531-34.304688-13.140624-45.144531-17.75-2.722657-1.171874-5.863281-.832031-8.273438.894532-2.414062 1.730468-3.738281 4.597656-3.5 7.554687.167969 1.28125.339844 2.558594.597657 3.925781 4.691406 26.453126 28.160156 58.367188 38.144531 71.082032 1.566406 2 2.167969 4.59375 1.640625 7.082031-.527344 2.484375-2.128906 4.609375-4.375 5.804687-4.777344 2.238282-9.992188 3.40625-15.273438 3.414063-3.382812.113281-6.378906 2.214844-7.636718 5.359375-1.257813 3.140625-.535157 6.730469 1.835937 9.144531 14.519531 13.824219 30.097656 26.492188 46.589844 37.890625 2.324219 1.640625 3.675781 4.328125 3.605469 7.171875-.066407 2.84375-1.546876 5.464844-3.945313 6.992188-2.402344 1.441406-4.878906 2.753906-7.425781 3.925781-2.460938 1.113281-4.25 3.328125-4.820313 5.96875-.574219 2.640625.140625 5.394531 1.921875 7.429688 18.0625 19.308593 38.472656 36.28125 60.753906 50.515624 11.355469 7.667969 24.117188 13.003907 37.546876 15.699219h.085937c7.890625-1.441406 15.570313-3.847656 22.871094-7.167969 6.710937 3.054688 13.757812 5.316407 20.992187 6.742188 7.203125-1.433594 14.21875-3.695312 20.90625-6.742188 7.300782 3.320313 14.980469 5.726563 22.867188 7.167969h.085937c27.515625 5.570313 56.117188-.082031 79.445313-15.699219 22.285156-14.234374 42.695312-31.207031 60.757812-50.515624 1.78125-2.035157 2.492188-4.789063 1.921875-7.429688-.570312-2.640625-2.359375-4.855469-4.824219-5.96875-2.542968-1.171875-5.019531-2.484375-7.421874-3.925781-2.398438-1.527344-3.878907-4.148438-3.945313-6.992188-.070313-2.84375 1.28125-5.53125 3.601563-7.171875 16.496093-11.398437 32.074218-24.066406 46.59375-37.890625 2.371093-2.414062 3.089843-6.003906 1.832031-9.144531-1.253907-3.144531-4.25-5.246094-7.632813-5.359375zm0 0" fill="#a4c2f7"/><path d="m380.25 289.644531c-14.539062 13.804688-30.117188 26.46875-46.59375 37.890625-2.328125 1.625-3.695312 4.308594-3.644531 7.148438.050781 2.84375 1.515625 5.472656 3.902343 7.015625 2.429688 1.441406 4.9375 2.753906 7.507813 3.925781 2.464844 1.113281 4.25 3.328125 4.824219 5.96875.570312 2.640625-.140625 5.394531-1.921875 7.429688-18.0625 19.308593-38.472657 36.28125-60.757813 50.515624-11.351562 7.667969-24.113281 13.003907-37.546875 15.699219h-.085937c-7.886719-1.441406-15.566406-3.847656-22.867188-7.167969-6.6875 3.046876-13.703125 5.308594-20.90625 6.742188-7.234375-1.425781-14.28125-3.6875-20.992187-6.742188-7.300781 3.320313-14.980469 5.726563-22.871094 7.167969h-.085937c-13.429688-2.695312-26.191407-8.03125-37.546876-15.699219-22.28125-14.234374-42.691406-31.207031-60.753906-50.515624-1.78125-2.035157-2.496094-4.789063-1.921875-7.429688.570313-2.640625 2.359375-4.855469 4.820313-5.96875 2.546875-1.171875 5.023437-2.484375 7.425781-3.925781 2.398437-1.527344 3.878906-4.148438 3.945313-6.992188.070312-2.84375-1.28125-5.53125-3.605469-7.171875-16.492188-11.398437-32.070313-24.066406-46.589844-37.890625-2.371094-2.414062-3.09375-6.003906-1.835937-9.144531 1.257812-3.144531 4.253906-5.246094 7.636718-5.359375 5.28125-.007813 10.496094-1.175781 15.273438-3.414063 2.246094-1.195312 3.847656-3.320312 4.375-5.804687.527344-2.488281-.074219-5.082031-1.640625-7.082031-9.984375-12.714844-33.453125-44.628906-38.144531-71.082032-.257813-1.367187-.429688-2.644531-.597657-3.925781-.238281-2.957031 1.085938-5.824219 3.5-7.554687 2.410157-1.726563 5.550781-2.066406 8.273438-.894532 10.839843 4.609376 28.078125 11.605469 45.144531 17.75 10.375 3.746094 20.941406 6.9375 31.65625 9.558594 2.96875.683594 6.078125-.28125 8.140625-2.519531 2.0625-2.242187 2.765625-5.414063 1.84375-8.320313-6.242187-19.726562-8.105469-40.574218-5.460937-61.097656.929687-6.007812 2.503906-11.902344 4.695312-17.578125.902344-2.203125 2.71875-3.910156 4.976562-4.679687 2.253907-.769532 4.734376-.523438 6.796876.667968.675781.269532 1.285156.675782 1.792968 1.195313 7.304688 7.074219 15 13.742187 23.039063 19.96875 2.316406 1.753906 5.367187 2.195313 8.085937 1.171875 2.71875-1.019531 4.722656-3.363281 5.3125-6.207031 4.863282-23.296875 18.261719-76.714844 45.226563-103.339844 26.964843 26.625 40.449219 80.042969 45.226562 103.339844.609375 2.851562 2.628907 5.195312 5.359375 6.214843 2.730469 1.019532 5.796875.574219 8.121094-1.179687 8.015625-6.226563 15.679688-12.894531 22.957031-19.96875.570313-.503906 1.199219-.933594 1.875-1.277344 1.539063 6.226563 2.734375 11.773438 3.671875 16.210938.5625 2.71875 2.425782 4.980469 4.984375 6.054687 2.558594 1.074219 5.480469.820313 7.816407-.679687 2.667968 20.554687.773437 41.445312-5.546876 61.183593-.890624 2.902344-.171874 6.054688 1.882813 8.285157s5.136719 3.203125 8.101563 2.554687c10.710937-2.632812 21.277343-5.824218 31.65625-9.558594-.40625 2.78125.585937 5.585938 2.648437 7.496094s4.933594 2.683594 7.679687 2.0625c15.660157-3.996094 31.050782-8.984375 46.078126-14.933594-4.695313 26.453126-28.160157 58.367188-38.230469 71.082032-1.582031 2.003906-2.183594 4.613281-1.636719 7.109375.546875 2.496093 2.179688 4.613281 4.453125 5.777343 4.753906 2.230469 9.9375 3.394532 15.191406 3.414063 3.398438.078125 6.421875 2.171875 7.703125 5.320313 1.277344 3.148437.5625 6.757812-1.816406 9.183593zm0 0" fill="#e3e7f2"/><path d="m245.933594 425.238281c-14.464844 2.855469-29.363282 2.710938-43.773438-.425781 7.203125-1.433594 14.21875-3.695312 20.90625-6.742188 7.300782 3.320313 14.980469 5.726563 22.867188 7.167969zm0 0" fill="#e3e7f2"/><g fill="#fff"><path d="m202.074219 21.953125c-25.457031 25.140625-38.820313 74.128906-44.324219 99.132813 3.824219 3.347656 7.734375 6.605468 11.300781 9.242187 2.316407 1.753906 5.367188 2.195313 8.085938 1.171875 2.71875-1.019531 4.722656-3.363281 5.308593-6.207031 4.867188-23.296875 18.261719-76.714844 45.230469-103.339844 2.542969-2.496094 5.292969-4.777344 8.214844-6.824219-3.921875-2.84375-8.242187-5.085937-12.824219-6.65625-7.945312 2.8125-15.128906 7.429688-20.992187 13.480469zm0 0"/><path d="m130.375 119.515625c-3.582031-3.183594-7.046875-6.390625-9.964844-9.15625-.507812-.519531-1.117187-.925781-1.792968-1.195313-2.0625-1.191406-4.542969-1.4375-6.796876-.667968-2.257812.769531-4.074218 2.476562-4.976562 4.679687-2.191406 5.675781-3.765625 11.570313-4.695312 17.578125-2.644532 20.523438-.78125 41.371094 5.460937 61.097656.671875 2.121094.480469 4.421876-.535156 6.402344 5.714843 1.765625 11.210937 3.300782 16.152343 4.4375 2.96875.683594 6.074219-.28125 8.136719-2.519531 2.066407-2.242187 2.769531-5.414063 1.847657-8.320313-6.242188-19.726562-8.109376-40.574218-5.460938-61.097656.625-3.800781 1.503906-7.554687 2.625-11.238281zm0 0"/><path d="m271.621094 425.238281h-.085938c-3.972656.800781-7.992187 1.371094-12.03125 1.707031 6.691406.472657 13.414063.320313 20.078125-.449218-2.757812-.359375-5.460937-.742188-7.960937-1.257813zm0 0"/><path d="m227.757812 424.8125c-4.226562.863281-8.5 1.484375-12.796874 1.859375 7.46875.710937 14.988281.628906 22.441406-.246094-3.4375-.425781-6.65625-.972656-9.644532-1.613281zm0 0"/><path d="m183.898438 425.238281h-.085938c-13.433594-2.695312-26.195312-8.03125-37.546875-15.699219-22.28125-14.234374-42.695313-31.207031-60.757813-50.515624-1.78125-2.035157-2.492187-4.789063-1.921874-7.429688.574218-2.640625 2.363281-4.855469 4.824218-5.96875 2.542969-1.171875 5.023438-2.484375 7.421875-3.925781 2.398438-1.527344 3.878907-4.148438 3.949219-6.992188.066406-2.84375-1.285156-5.53125-3.605469-7.171875-16.492187-11.398437-32.070312-24.066406-46.59375-37.890625-2.371093-2.414062-3.089843-6.003906-1.832031-9.144531 1.257812-3.144531 4.253906-5.246094 7.636719-5.359375 5.277343-.007813 10.492187-1.175781 15.273437-3.414063 2.246094-1.195312 3.84375-3.320312 4.371094-5.804687.527344-2.488281-.074219-5.082031-1.640625-7.082031-9.984375-12.714844-33.449219-44.628906-38.144531-71.082032-.253906-1.367187-.425782-2.644531-.597656-3.925781-.085938-.886719-.019532-1.78125.1875-2.644531-5.296876-2.140625-10.085938-4.128906-14.011719-5.804688-2.722657-1.171874-5.863281-.832031-8.273438.894532-2.414062 1.730468-3.738281 4.597656-3.5 7.554687.167969 1.28125.339844 2.558594.597657 3.925781 4.691406 26.453126 28.160156 58.367188 38.144531 71.082032 1.566406 2 2.167969 4.59375 1.640625 7.082031-.527344 2.484375-2.128906 4.609375-4.375 5.804687-4.777344 2.238282-9.992188 3.40625-15.273438 3.414063-3.382812.113281-6.378906 2.214844-7.636718 5.359375-1.257813 3.140625-.535157 6.730469 1.835937 9.144531 14.519531 13.824219 30.097656 26.492188 46.589844 37.890625 2.324219 1.640625 3.675781 4.328125 3.605469 7.171875-.066407 2.84375-1.546876 5.464844-3.945313 6.992188-2.402344 1.441406-4.878906 2.753906-7.425781 3.925781-2.460938 1.113281-4.25 3.328125-4.820313 5.96875-.574219 2.640625.140625 5.394531 1.921875 7.429688 18.0625 19.308593 38.472656 36.28125 60.753906 50.515624 11.355469 7.667969 24.117188 13.003907 37.546876 15.699219h.085937c11.257813 2.238281 22.800781 2.640625 34.183594 1.195313-2.832031-.324219-5.648438-.605469-8.582031-1.195313zm0 0"/><path d="m148.527344 123.542969c3.785156-18.601563 9.078125-36.867188 15.820312-54.613281 6.574219-18.492188 16.535156-35.597657 29.371094-50.449219 7.292969-8.097657 16.4375-14.308594 26.652344-18.105469l5.390625 16.210938c-7.539063 2.921874-14.265625 7.601562-19.625 13.65625-11.320313 13.269531-20.105469 28.507812-25.917969 44.953124-6.390625 16.847657-11.410156 34.1875-15.007812 51.847657zm0 0"/></g><path d="m171.15625 66.226562c.347656.414063.761719.773438 1.222656 1.058594.484375.300782.988282.570313 1.507813.800782 2.09375.808593 4.40625.832031 6.511719.070312 4.164062-1.765625 6.273437-6.429688 4.847656-10.71875-.414063-1.042969-1.011719-2.003906-1.765625-2.835938-.730469-.847656-1.617188-1.554687-2.613281-2.070312-2.023438-1-4.363282-1.152344-6.5-.429688-2.160157.875-3.917969 2.519532-4.933594 4.617188-.9375 2.132812-1.011719 4.546875-.203125 6.734375l.773437 1.457031c.320313.492188.707032.933594 1.152344 1.316406zm0 0" fill="#428dff"/><path d="m438.882812 169.574219c-4.875-3.617188-11.300781-4.394531-16.894531-2.039063-24.429687 10.746094-49.609375 19.703125-75.335937 26.800782 5.453125-18.183594 12.800781-53.316407.617187-84.28125-2.054687-5.152344-6.53125-8.949219-11.949219-10.128907-5.558593-1.261719-11.382812.339844-15.519531 4.265625-6.171875 5.835938-15.035156 13.925782-22.1875 19.351563-6.613281-32.03125-26.8125-108.160157-71.851562-123.167969-1.75-.542969-3.628907-.496094-5.351563.136719v-.136719c-.332031.117188-.621094.296875-.953125.417969l-.257812.109375c-9.714844 3.84375-18.417969 9.867187-25.4375 17.605468-2.160157 2.238282-4.179688 4.613282-6.039063 7.109376-1.503906 1.800781-2.164062 4.15625-1.824218 6.476562.339843 2.320312 1.652343 4.386719 3.605468 5.683594 3.777344 2.457031 8.792969 1.726562 11.707032-1.707032 1.535156-2.074218 3.207031-4.039062 5-5.890624 4.742187-5.210938 10.46875-9.433594 16.855468-12.414063 35.839844 15.15625 53.273438 87.039063 57.839844 109.226563 1.191406 5.707031 5.21875 10.414062 10.675781 12.472656 5.453125 2.0625 11.585938 1.191406 16.253907-2.300782 8.320312-6.410156 16.191406-13.378906 23.570312-20.855468 10.296875 26.179687 3.753906 57.054687-1.078125 73.128906-1.742187 5.808594-.277344 12.105469 3.855469 16.542969 4.132812 4.4375 10.308594 6.347656 16.226562 5.023437 26.773438-7.28125 52.925782-16.675781 78.214844-28.09375-2.730469 25.601563-29.011719 60.542969-37 70.671875-3.144531 3.992188-4.347656 9.175781-3.28125 14.144531s4.289062 9.203126 8.792969 11.550782c5.9375 2.867187 12.453125 4.328125 19.046875 4.265625-14.210938 13.484375-29.417969 25.875-45.492188 37.070312-4.691406 3.3125-7.398437 8.765625-7.210937 14.507813.144531 5.640625 3.109375 10.835937 7.894531 13.832031 2.730469 1.683594 5.585938 3.164063 8.535156 4.429687-17.621094 18.738282-37.488281 35.226563-59.15625 49.089844-26.351562 17.558594-59.578125 21.269532-89.15625 9.949219v-76.730469c42.605469-2.058594 82.296875-22.226562 109.082032-55.414062 7.550781-9.007813 13.742187-19.070313 18.382812-29.867188 1.53125-4.382812-.722656-9.183594-5.070312-10.808594-4.347657-1.625-9.195313.523438-10.914063 4.835938-4.03125 9.074219-9.316406 17.542969-15.691406 25.15625-23.554688 29.15625-58.359375 46.972656-95.789063 49.03125v-71.980469c43.523438-7.464843 82.304688-68.742187 84.039063-71.515625 2.496093-4.007812 1.273437-9.277344-2.730469-11.777344-4.007812-2.496093-9.28125-1.273437-11.777344 2.730469-10.179687 16.214844-40.746094 55.980469-69.5625 63.0625v-152.40625c0-4.710937-3.820312-8.53125-8.535156-8.53125-4.710938 0-8.53125 3.820313-8.53125 8.53125v152.40625c-28.820312-7.082031-59.386719-46.8125-69.566406-63.0625-2.496094-4.003906-7.769532-5.226562-11.773438-2.730469-4.007812 2.5-5.230468 7.769532-2.730468 11.777344 1.703124 2.773438 40.515624 64.050782 84.035156 71.515625v71.980469c-37.402344-2.078125-72.179688-19.890625-95.71875-49.03125-6.382813-7.632812-11.664063-16.117188-15.691406-25.210938-1.71875-4.308593-6.570313-6.457031-10.914063-4.832031-4.347656 1.625-6.601563 6.425781-5.070313 10.808594 4.640626 10.796875 10.832032 20.859375 18.378907 29.867187 26.78125 33.207032 66.472656 53.390626 109.082031 55.464844v76.707032c-29.589844 11.140624-62.726562 7.4375-89.128906-9.960938-21.53125-13.777344-41.285156-30.148438-58.828125-48.742188-.085938-.101562-.105469-.230468-.1875-.332031 2.878906-1.304687 5.675781-2.789062 8.371093-4.445312 4.796876-2.984375 7.777344-8.183594 7.925782-13.832031.1875-5.742188-2.523438-11.195313-7.21875-14.507813-16.035156-11.15625-31.203125-23.515625-45.363282-36.972656 6.539063-.007813 12.992188-1.488281 18.882813-4.328125 4.507813-2.347656 7.734375-6.585938 8.800781-11.554688s-.140625-10.15625-3.285156-14.148437c-7.996094-10.121094-34.269531-45.105469-37.035156-70.332031 25.371094 11.15625 51.527344 20.433593 78.257812 27.761718 5.914063 1.320313 12.089844-.59375 16.21875-5.027344 4.128906-4.4375 5.59375-10.734374 3.851563-16.539062-4.828125-16.074219-11.375-46.933594-1.246094-72.855469 7.550781 7.269531 15.476563 14.144531 23.742187 20.589844 4.667969 3.496094 10.800782 4.363281 16.257813 2.300781s9.480469-6.769531 10.671875-12.480468c2.269531-10.863282 5-21.667969 8.25-32.257813 1.292969-4.449219-1.148438-9.132813-5.535156-10.621094-2.175782-.726562-4.550782-.535156-6.582032.523438-2.03125 1.0625-3.546874 2.902343-4.195312 5.097656-3.414062 11.144531-6.265625 22.402344-8.644531 33.785156-7.742188-6.050781-15.164063-12.496093-22.238281-19.3125-4.136719-3.921875-9.957032-5.523437-15.515626-4.265625-5.417968 1.183594-9.898437 4.980469-11.945312 10.136719-12.175781 30.960937-4.847656 66.089844.683594 84.300781-25.734375-7.117187-50.914063-16.089844-75.351563-26.84375-5.597656-2.351562-12.015625-1.574218-16.894531 2.039063-4.777344 3.492187-7.3242188 9.269531-6.683594 15.152343 3.011719 28.222657 26.710938 61.867188 40.527344 79.4375-3.628906 1.628907-7.5625 2.453126-11.539062 2.414063-6.851563.210937-12.917969 4.484375-15.425782 10.863281-2.542968 6.296875-1.027344 13.503906 3.828125 18.246094 14.867188 14.171875 30.847657 27.128906 47.789063 38.742188-2.105469 1.265624-4.28125 2.40625-6.519532 3.410156-4.953124 2.300781-8.53125 6.800781-9.660156 12.144531-1.105468 5.253906.375 10.722656 3.976563 14.703125 18.550781 19.835938 39.507812 37.273438 62.386719 51.910156 18.554687 12.582032 40.464843 19.292969 62.882812 19.265625 12.113281-.003906 24.152344-1.839843 35.71875-5.433593v72.976562c0 4.710938 3.820312 8.53125 8.535156 8.53125 4.710938 0 8.53125-3.820312 8.53125-8.53125v-72.976562c33.25 10.722656 69.574219 5.640624 98.605469-13.792969 22.878906-14.636719 43.839844-32.078125 62.394531-51.914063 3.601563-3.984375 5.082032-9.453125 3.976563-14.710937-1.117188-5.351563-4.703125-9.859375-9.667969-12.152344-2.1875-1.003906-4.320312-2.121094-6.390625-3.34375 16.84375-11.730469 32.777344-24.71875 47.65625-38.855469 4.859375-4.742187 6.371094-11.945312 3.832031-18.242187-2.503906-6.378907-8.570312-10.652344-15.417968-10.863281-3.992188.035156-7.945313-.796876-11.589844-2.433594 13.859375-17.550782 37.546875-51.199219 40.566406-79.417969.636719-5.875-1.910156-11.640625-6.679688-15.128906zm0 0" fill="#428dff"/></svg>